P3
4 4
255
126 106 3
128 139 17
84 119 48
84 77 45
107 134 35
130 143 55
122 89 90
69 84 105
42 111 95
84 128 122
125 109 106
95 109 59
53 73 71
71 111 66
61 73 71
28 45 71
