P3
4 4
255
205 175 150
255 238 198
184 229 185
251 226 190
243 223 186
255 255 206
80 33 40
127 157 157
158 196 167
148 184 163
114 85 100
255 255 206
135 128 126
251 255 216
117 110 98
82 102 102
